<svg id="Layer_1" data-name="Layer 1" xmlns="http://www.w3.org/2000/svg" viewBox="0 0 435 98.53">
    <defs>
        <style>.cls-1{fill:#fdfdfd;}.cls-2{fill:#f5990b;}.cls-3{fill:#1d2440;}.cls-4{fill:#fdf7ed;}.cls-5{fill:#fefefe;}.cls-6{fill:#fdfefe;}.cls-7{fill:#fdfdfe;}.cls-8{fill:#fafbfb;}</style>
    </defs>
    <title>logo-light</title>
    <path class="cls-1" d="M290.59,118.87q-108.25,0-216.5,0c-.81,0-1-.19-1-1q0-48.27,0-96.53c0-.82.19-1,1-1q216.49,0,433,0c.82,0,1,.18,1,1q0,48.26,0,96.53c0,.81-.18,1-1,1Q398.85,118.86,290.59,118.87Z" transform="translate(-73.09 -20.36)" />
    <path class="cls-2" d="M125.86,110.4a42.71,42.71,0,0,1-7.41-84.86,49.43,49.43,0,0,1,8.76-.59,3,3,0,0,1,2.12.88Q143,38.66,156.78,51.46c3.49,3.26,7,6.53,10.48,9.77a2.56,2.56,0,0,1,.88,1.76,42.78,42.78,0,0,1-35.26,46.9A30.79,30.79,0,0,1,125.86,110.4Z" transform="translate(-73.09 -20.36)" />
    <path class="cls-3" d="M233.55,38.78l-7.62,7L204.31,65.52c-.64.59-1.26,1.2-1.92,1.76a2,2,0,0,1-3-.09c-1.9-1.72-3.76-3.49-5.65-5.23L170.33,40.28c-.47-.44-.86-1-1.33-1.49a1.77,1.77,0,0,0-.23,1.25q0,6.62,0,13.23a6.23,6.23,0,0,1-.2,1.61c-.41,1.46-1.7,1.89-2.8.88-1.84-1.68-3.66-3.39-5.48-5.09-1.42-1.33-2.79-2.72-4.28-4a2.47,2.47,0,0,1-.92-2.08q0-8.84.12-17.68a1.76,1.76,0,0,1,2-2c3.8-.06,7.61,0,11.41,0a3,3,0,0,1,1.91.94Q185.08,39,199.7,52.16c1.47,1.32,1,1.36,2.52,0Q216.85,39,231.44,25.87a3.39,3.39,0,0,1,2.45-.94c3.62,0,7.25,0,10.87,0,1.74,0,2.46.71,2.46,2.42V90c0,1.79-.72,2.51-2.49,2.52-2.9,0-5.79,0-8.69,0-1.86,0-2.48-.62-2.49-2.47V38.78Z" transform="translate(-73.09 -20.36)" />
    <path class="cls-3" d="M325.89,68.54c-1.17-.92-2.13-1.66-3.07-2.43-3.61-2.91-5.52-6.58-5.18-11.32.27-3.86,2.28-6.53,6-7.56a17.55,17.55,0,0,1,10.68.27,6.94,6.94,0,0,1,4.87,6.73c.05,1.81,0,3.62,0,5.42,0,.8-.3,1.1-1.09,1.09-2.35,0-4.69,0-7.27,0C332.33,62,333.71,63,335,64.17a12.86,12.86,0,0,1,4,12.5,7.73,7.73,0,0,1-5.63,6.39,16.9,16.9,0,0,1-10.66-.21,7.1,7.1,0,0,1-5-7.08c0-2,0-4,0-6.07,0-.92.36-1.19,1.24-1.17C321.08,68.57,323.33,68.54,325.89,68.54Z" transform="translate(-73.09 -20.36)" />
    <path class="cls-3" d="M389.32,81.31a6.43,6.43,0,0,1-4.72,2.23c-3.74.14-6-1.85-6.28-5.61-.09-1.25-.05-2.52-.05-3.79,0-6.28,0-12.57,0-18.86,0-1,.25-1.36,1.28-1.33q3.11.09,6.19,0c1,0,1.3.37,1.29,1.34,0,6.21,0,12.43,0,18.64a4,4,0,0,0,.15,1.5,1,1,0,0,0,1,.69,1,1,0,0,0,1-.69,5,5,0,0,0,.21-1.71V55.4c0-1.43,0-1.43,1.48-1.43,2,0,4,0,6,0,.91,0,1.3.24,1.3,1.22q0,13.39,0,26.78c0,.91-.36,1.19-1.23,1.17-1.95,0-3.91,0-5.86,0C389.38,83.11,389.38,83.11,389.32,81.31Z" transform="translate(-73.09 -20.36)" />
    <path class="cls-3" d="M462.72,55.73a6.7,6.7,0,0,1,6.64-2.07c2.39.41,3.61,2.11,4.11,4.36a11.68,11.68,0,0,1,.25,2.36c0,7.12,0,14.24,0,21.36,0,1-.28,1.43-1.36,1.39-1.95-.07-3.91,0-5.86,0-1.53,0-1.53,0-1.53-1.48q0-9.16,0-18.33a5.38,5.38,0,0,0-.17-1.6.93.93,0,0,0-.95-.74,1,1,0,0,0-1,.64,4,4,0,0,0-.22,1.6c0,6.18,0,12.36,0,18.54,0,1-.28,1.42-1.35,1.39q-3-.1-6.08,0c-1.09,0-1.34-.38-1.34-1.4,0-8.78,0-17.56,0-26.34,0-1.39,0-1.42,1.38-1.42h5.54C462.56,54,462.56,54,462.72,55.73Z" transform="translate(-73.09 -20.36)" />
    <path class="cls-3" d="M342.62,68.63V62.45c0-5.29,2.62-8.26,7.91-8.82a15,15,0,0,1,6.54.56,7.38,7.38,0,0,1,5.35,7.22q.07,7.31,0,14.62c0,3.5-2.38,6.11-6.22,7.06a13.84,13.84,0,0,1-9.13-.61,7,7,0,0,1-4.45-6.81C342.6,73.32,342.62,71,342.62,68.63Z" transform="translate(-73.09 -20.36)" />
    <path class="cls-3" d="M450.47,68.66v6.39c0,4.39-2,7-6.33,8.06a13.74,13.74,0,0,1-9-.63,7,7,0,0,1-4.45-6.8c0-4.4.08-8.81,0-13.21-.13-5.11,2.63-8.24,7.93-8.84a14.76,14.76,0,0,1,6.43.53,7.45,7.45,0,0,1,5.47,7.45C450.49,64,450.47,66.31,450.47,68.66Z" transform="translate(-73.09 -20.36)" />
    <path class="cls-3" d="M484.38,71.14c-1.43-1-3-1.71-4.3-2.8-2.88-2.4-3.39-5.53-2.64-8.94.69-3.13,2.9-4.82,5.92-5.49a15.6,15.6,0,0,1,9,.52A6.58,6.58,0,0,1,497,61.14c0,.76-.05,1.52,0,2.27.1,1.09-.39,1.38-1.4,1.35-1.77-.06-3.55,0-5.32,0-.2,0-.41,0-.86.07,1.08.64,2,1.13,2.84,1.67,4.12,2.58,5.38,6.43,4.12,11.28a7,7,0,0,1-4.85,5,15.29,15.29,0,0,1-9.71.07,6.46,6.46,0,0,1-4.65-6.36c0-1.41,0-2.82,0-4.23,0-.86.33-1.15,1.16-1.13C480.34,71.17,482.36,71.14,484.38,71.14Z" transform="translate(-73.09 -20.36)" />
    <path class="cls-3" d="M295.08,68.19c0,4.56,0,9.11,0,13.67,0,.93-.27,1.29-1.24,1.27q-3.32-.09-6.63,0c-1,0-1.29-.4-1.29-1.36,0-9,0-18,0-27,0-1.09-.3-1.34-1.31-1.26s-2.25,0-3.37,0c-.73,0-1.05-.31-1-1,0-1.41,0-2.82,0-4.23,0-.75.3-1,1-1h18.48c.74,0,1.05.29,1.05,1q0,2.12,0,4.23c0,.81-.39,1.07-1.15,1-1.23,0-2.47,0-3.69,0-.72,0-.92.19-.91.9C295.1,59,295.08,63.6,295.08,68.19Z" transform="translate(-73.09 -20.36)" />
    <path class="cls-3" d="M403.48,69.53c0-2.82,0-5.64,0-8.46,0-.75-.11-1.09-1-1-1.65.06-1.65,0-1.65-1.59,0-1,.05-2.1,0-3.15s.26-1.47,1.28-1.31,1.5-.18,1.36-1.32a26.3,26.3,0,0,1,0-2.81c0-.64.28-.94.91-.94h6.95c.63,0,.89.34.88,1,0,1.09,0,2.17,0,3.25,0,.64.12.88.82.86,3-.08,2.62-.15,2.63,2.71,0,.76,0,1.52,0,2.28s-.27,1.06-1,1.08-1.89-.36-2.27.16-.16,1.58-.17,2.4V75.29c0,1.56.19,1.73,1.75,1.74s1.69,0,1.69,1.7c0,1,0,2.1,0,3.14,0,.86-.29,1.26-1.19,1.25-2,0-4,0-6,0-3.13,0-4.85-1.65-5-4.8-.1-2.92,0-5.85,0-8.77Z" transform="translate(-73.09 -20.36)" />
    <path class="cls-3" d="M277.26,65.18c0,5.53,0,11.06,0,16.59,0,1.06-.33,1.39-1.37,1.36-2.21-.07-4.42,0-6.63,0-.84,0-1.16-.31-1.16-1.15q0-16.8,0-33.6c0-.85.35-1.15,1.17-1.14,2.25,0,4.49.05,6.74,0,1,0,1.25.32,1.25,1.26C277.24,54.05,277.26,59.62,277.26,65.18Z" transform="translate(-73.09 -20.36)" />
    <path class="cls-3" d="M365.91,65.17c0-5.52,0-11.05,0-16.58,0-1.06.34-1.4,1.38-1.37,2.06.07,4.13.06,6.19,0,.9,0,1.2.31,1.2,1.2q0,16.76,0,33.5c0,.89-.31,1.21-1.2,1.19-2.1,0-4.21,0-6.3,0-1,0-1.27-.3-1.27-1.25C365.93,76.3,365.91,70.74,365.91,65.17Z" transform="translate(-73.09 -20.36)" />
    <path class="cls-3" d="M427,68.65c0,4.38,0,8.75,0,13.12,0,1.06-.33,1.39-1.38,1.36-2.06-.07-4.12,0-6.19,0-.89,0-1.2-.31-1.2-1.2q0-13.38,0-26.77c0-.91.33-1.21,1.22-1.2,2.1,0,4.2.06,6.3,0,.95,0,1.25.32,1.24,1.26C427,59.69,427,64.17,427,68.65Z" transform="translate(-73.09 -20.36)" />
    <path class="cls-3" d="M422.66,53.17c-1.09,0-2.17,0-3.26,0-.76,0-1.14-.24-1.11-1.06,0-1.3,0-2.6,0-3.9,0-.68.27-1,1-1h6.83c.63,0,1,.24.94.89,0,1.37,0,2.74,0,4.12,0,.71-.34.94-1,.93C424.9,53.16,423.78,53.17,422.66,53.17Z" transform="translate(-73.09 -20.36)" />
    <path class="cls-4" d="M159.93,100c-.67-1.73.68-3.92,2.73-4.35A6,6,0,0,0,159.93,100Z" transform="translate(-73.09 -20.36)" />
    <path class="cls-5" d="M125.69,95.78c-16.42-.38-28.63-13.13-28.23-29.47.38-15.17,13.55-27.45,29.05-27.09a28.28,28.28,0,0,1-.82,56.56Z" transform="translate(-73.09 -20.36)" />
    <path class="cls-6" d="M326.76,69.26c2.14,1.75,3.54,3.62,3.3,6.34-.1,1.16-.63,1.64-1.74,1.62s-1.53-.45-1.55-1.64C326.73,73.54,326.76,71.51,326.76,69.26Z" transform="translate(-73.09 -20.36)" />
    <path class="cls-7" d="M330.07,60.16c-1.75-1.53-3.47-2.8-3.32-5.24.08-1.3.52-1.79,1.66-1.78s1.63.55,1.65,1.82C330.1,56.61,330.07,58.27,330.07,60.16Z" transform="translate(-73.09 -20.36)" />
    <path class="cls-1" d="M351.35,68.54V61.38a2.76,2.76,0,0,1,.17-1.17,1,1,0,0,1,1.05-.6,1,1,0,0,1,.94.61,3.41,3.41,0,0,1,.2,1.38c0,4.63,0,9.25,0,13.88a5.92,5.92,0,0,1-.13,1.18,1,1,0,0,1-1.11.8,1,1,0,0,1-1-.81,4.74,4.74,0,0,1-.1-1.07C351.34,73.23,351.35,70.88,351.35,68.54Z" transform="translate(-73.09 -20.36)" />
    <path class="cls-1" d="M439.38,68.5v-7a3.11,3.11,0,0,1,.14-1.17,1,1,0,0,1,1-.67.93.93,0,0,1,1,.65,4.13,4.13,0,0,1,.18,1.16q0,7.11,0,14.2a5.13,5.13,0,0,1-.11,1,1,1,0,0,1-1.05.89,1,1,0,0,1-1.13-1,5.27,5.27,0,0,1-.06-1Z" transform="translate(-73.09 -20.36)" />
    <path class="cls-1" d="M485.9,71.88a4.49,4.49,0,0,1,2.34,4.05c0,.74-.14,1.51-1.15,1.53s-1.16-.71-1.18-1.48C485.88,74.69,485.9,73.39,485.9,71.88Z" transform="translate(-73.09 -20.36)" />
    <path class="cls-8" d="M488.2,64c-1.63-.64-2.51-1.9-2.28-3.26.1-.59.31-1.12,1.06-1.16a1.06,1.06,0,0,1,1.21,1.1C488.25,61.81,488.2,62.92,488.2,64Z" transform="translate(-73.09 -20.36)" />
    <path class="cls-2" d="M152.1,67.74A26.48,26.48,0,1,1,125.86,41.2,26.49,26.49,0,0,1,152.1,67.74Z" transform="translate(-73.09 -20.36)" />
    <path class="cls-5" d="M125.63,92.7a25.08,25.08,0,1,1,25.11-25.4A25,25,0,0,1,125.63,92.7Z" transform="translate(-73.09 -20.36)" />
    <path class="cls-2" d="M125.74,90.67a23.12,23.12,0,1,1,23.19-23.1A23.2,23.2,0,0,1,125.74,90.67Z" transform="translate(-73.09 -20.36)" />
    <path class="cls-5" d="M107.19,67.54A18.54,18.54,0,1,1,125.6,86.06,18.68,18.68,0,0,1,107.19,67.54Z" transform="translate(-73.09 -20.36)" />
</svg>